<?xml version="1.0" encoding="utf-8"?>
<!-- Generator: Adobe Illustrator 25.0.0, SVG Export Plug-In . SVG Version: 6.00 Build 0)  -->
<svg version="1.1" id="Calque_1" xmlns="http://www.w3.org/2000/svg" xmlns:xlink="http://www.w3.org/1999/xlink" x="0px" y="0px"
	 viewBox="0 0 283.46 85.04" style="enable-background:new 0 0 283.46 85.04;" xml:space="preserve">
<style type="text/css">
	.st0{fill:#147899;}
	.st1{fill:#02385C;}
	.st2{fill:#001A37;}
</style>
<g>
	<path class="st0" d="M227.63,41.56v0.68c0-0.12,0-0.23,0-0.35C227.63,41.78,227.63,41.67,227.63,41.56 M212.01,26.26
		c-6.32,0-12.02,3.81-14.44,9.65c-2.42,5.84-1.08,12.56,3.39,17.03c2.99,2.99,6.98,4.58,11.05,4.58c2.01,0,4.04-0.39,5.98-1.19
		c0.26-0.11,0.52-0.22,0.77-0.34V43.89c-0.86,2.91-3.56,5.03-6.75,5.03v0c-2.85,0-5.41-1.71-6.5-4.34
		c-1.09-2.63-0.49-5.66,1.53-7.67c1.35-1.35,3.15-2.06,4.98-2.06c0.91,0,1.82,0.18,2.69,0.54c1.99,0.83,3.46,2.5,4.05,4.5V27.8
		C216.71,26.82,214.43,26.27,212.01,26.26"/>
	<path class="st0" d="M67.32,26.18c-4,0-8,1.53-11.05,4.58c-6.1,6.1-6.1,16,0,22.1c3.05,3.05,7.05,4.58,11.05,4.58
		c4,0,8-1.53,11.05-4.58l-6.07-6.07c-1.31,1.32-3.1,2.06-4.96,2.06c-0.01,0-0.01,0-0.02,0c-3.19,0-5.97-2.14-6.8-5.22
		c-0.82-3.08,0.52-6.32,3.28-7.92c1.1-0.63,2.31-0.94,3.52-0.94c1.82,0,3.62,0.71,4.98,2.06l6.07-6.07
		C75.32,27.71,71.32,26.18,67.32,26.18"/>
	<path class="st0" d="M137.46,26.26h-12.18c-5.5,0-9.96,4.46-9.96,9.96c0,5.5,4.46,9.96,9.96,9.96h5.13c0.76,0,1.37,0.61,1.37,1.37
		c0,0.76-0.61,1.37-1.37,1.37h-12.18v8.59h12.32c4-0.05,7.58-2.5,9.09-6.21c1.51-3.71,0.65-7.96-2.18-10.79v0
		c-1.86-1.87-4.38-2.92-7.01-2.92c-0.01,0-0.02,0-0.03,0h-5.13c-0.76,0-1.37-0.62-1.37-1.38s0.62-1.37,1.37-1.37h12.18V26.26"/>
	<path class="st0" d="M227.63,42.24c-0.13,5.9-3.58,11.21-8.88,13.74v1.49h8.88V42.24 M218.76,39.88v4.01
		c0.19-0.64,0.29-1.31,0.29-2C219.05,41.2,218.95,40.52,218.76,39.88 M227.63,26.23h-8.88v1.57c5.15,2.48,8.74,7.69,8.88,13.76
		V26.23"/>
	<path class="st1" d="M218.76,27.8v12.08c0.19,0.64,0.29,1.31,0.29,2c0,0.7-0.1,1.37-0.29,2v12.09c5.3-2.53,8.74-7.84,8.88-13.74
		v-0.68C227.5,35.49,223.91,30.27,218.76,27.8"/>
	<path class="st0" d="M153.79,26.23h-8.52v31.24h8.52h-8.52V39.9l0-0.18c0.07-5.65,3.57-10.48,8.52-12.49V26.23"/>
	<path class="st0" d="M177.75,26.23c-3.65,0-6.96,1.43-9.41,3.75c2.58,2.45,4.21,5.91,4.26,9.74l0,0.18c0-2.84,2.3-5.15,5.15-5.15
		c2.84,0,5.15,2.3,5.15,5.15v17.57h8.52V39.9l0-0.18C191.32,32.25,185.24,26.23,177.75,26.23"/>
	<path class="st0" d="M158.93,26.23c-1.82,0-3.56,0.36-5.15,1v30.24V39.9c0-2.84,2.3-5.15,5.15-5.15s5.15,2.3,5.15,5.15l0,0l0-0.18
		c0.05-3.83,1.67-7.28,4.26-9.74C165.89,27.66,162.58,26.23,158.93,26.23"/>
	<path class="st1" d="M153.79,27.23c-4.94,2.01-8.45,6.84-8.52,12.49l0,0.18v17.57h8.52V27.23"/>
	<path class="st1" d="M168.34,29.98c-2.58,2.45-4.21,5.91-4.26,9.74l0,0.18v17.57h8.52V39.9l0,0l0-0.18
		C172.55,35.89,170.92,32.44,168.34,29.98"/>
	<path class="st0" d="M95.49,46.43l-4.08,2.36v8.55h8.17v-8.55L95.49,46.43 M99.57,26.09H91.4v8.55L95.49,37l4.08-2.36V26.09"/>
	<path class="st0" d="M103.65,41.71l-4.08,2.36v4.71l7.4,4.27l4.08-7.07L103.65,41.71 M84,30.37l-4.08,7.07l7.4,4.27l4.08-2.36
		v-4.71L84,30.37"/>
	<path class="st1" d="M99.57,44.07l-4.08,2.36l4.08,2.36V44.07 M91.4,34.64v4.71L95.49,37L91.4,34.64"/>
	<path class="st0" d="M87.32,41.71l-7.4,4.27L84,53.06l7.4-4.27v-4.71L87.32,41.71 M106.97,30.37l-7.4,4.27v4.71l4.08,2.36l7.4-4.27
		L106.97,30.37"/>
	<path class="st1" d="M91.4,44.07v4.71l4.08-2.36L91.4,44.07 M99.57,34.64L95.49,37l4.08,2.36V34.64"/>
	<path class="st1" d="M91.4,39.36l-4.08,2.36l4.08,2.36V39.36 M99.57,39.36v4.71l4.08-2.36L99.57,39.36"/>
	<polyline class="st2" points="95.49,37 91.4,39.36 91.4,44.07 95.49,46.43 99.57,44.07 99.57,39.36 95.49,37 	"/>
	<path class="st0" d="M50.43,16.17h-15c-0.69,0-1.25,0.56-1.25,1.25v48.56c0,0.69,0.56,1.25,1.25,1.25h15v-9.9h-5.09
		c-0.69,0-1.25-0.56-1.25-1.25l0-28.74c0-0.69,0.56-1.25,1.25-1.25h5.09V16.17"/>
	<path class="st0" d="M32.53,16.17h-15c-0.69,0-1.25,0.56-1.25,1.25v48.56c0,0.69,0.56,1.25,1.25,1.25h15v-9.9h-5.09
		c-0.69,0-1.25-0.56-1.25-1.25V27.35c0-0.69,0.56-1.25,1.25-1.25h5.09V16.17"/>
	<path class="st0" d="M247.89,16.17h-15v9.92h5.09c0.69,0,1.25,0.56,1.25,1.25v28.74c0,0.69-0.56,1.25-1.25,1.25h-5.09v9.9h15
		c0.69,0,1.25-0.56,1.25-1.25l0-48.56C249.15,16.74,248.58,16.17,247.89,16.17"/>
	<path class="st0" d="M265.82,16.17h-15v9.92h5.09c0.69,0,1.25,0.56,1.25,1.25v28.74c0,0.69-0.56,1.25-1.25,1.25h-5.09v9.9h15
		c0.69,0,1.25-0.56,1.25-1.25V17.43C267.07,16.74,266.51,16.17,265.82,16.17"/>
</g>
</svg>
